<?xml version="1.0" encoding="UTF-8" standalone="yes"?>
<!DOCTYPE svg PUBLIC "-//W3C//DTD SVG 1.0//EN" "http://www.w3.org/TR/2001/REC-SVG-20010904/DTD/svg10.dtd">
<svg height="100%" width="100%" xmlns="http://www.w3.org/2000/svg" xmlns:svg="http://www.w3.org/2000/svg" xmlns:xlink="http://www.w3.org/1999/xlink">
	<defs >

 <marker id="arrow" markerWidth="10" markerHeight="10" refX="0" refY="3" orient="auto" markerUnits="strokeWidth">
      <path d="M0,0 L0,6 L9,3 z" fill="#f00" />
    </marker>
	</defs>
	<g id="bbox">
		<rect fill-opacity="0.1" height="72px" width="800px" x="0" y="0" />
		<g id="dim">
			<line stroke="#000000"  x1="400" x2="790" y1="84" y2="84"  marker-end="url(#arrow)"/>
			<line stroke="#000000"  x2="10" x1="400" y1="84" y2="84"  marker-end="url(#arrow)"/>
		</g>
		<text x="0" y="100">Min:	2009/09/1 6:2</text>
		<text x="800" text-anchor="end" y="100">Max:	2011/11/10 2:56</text>
		<text x="400" text-anchor="middle" y="100">Scale:	10 days</text>
		<line style="stroke:#fff;stroke-width:1px" x1="0" x2="0" y1="72" y2="0" />
		<line style="stroke:#fff;stroke-width:1px" x1="10" x2="10" y1="72" y2="0" />
		<line style="stroke:#fff;stroke-width:1px" x1="20" x2="20" y1="72" y2="0" />
		<line style="stroke:#fff;stroke-width:1px" x1="30" x2="30" y1="72" y2="0" />
		<line style="stroke:#fff;stroke-width:1px" x1="40" x2="40" y1="72" y2="0" />
		<line style="stroke:#fff;stroke-width:1px" x1="50" x2="50" y1="72" y2="0" />
		<line style="stroke:#fff;stroke-width:1px" x1="60" x2="60" y1="72" y2="0" />
		<line style="stroke:#fff;stroke-width:1px" x1="70" x2="70" y1="72" y2="0" />
		<line style="stroke:#fff;stroke-width:1px" x1="80" x2="80" y1="72" y2="0" />
		<line style="stroke:#fff;stroke-width:1px" x1="90" x2="90" y1="72" y2="0" />
		<line style="stroke:#fff;stroke-width:1px" x1="100" x2="100" y1="72" y2="0" />
		<line style="stroke:#fff;stroke-width:1px" x1="110" x2="110" y1="72" y2="0" />
		<line style="stroke:#fff;stroke-width:1px" x1="120" x2="120" y1="72" y2="0" />
		<line style="stroke:#fff;stroke-width:1px" x1="130" x2="130" y1="72" y2="0" />
		<line style="stroke:#fff;stroke-width:1px" x1="140" x2="140" y1="72" y2="0" />
		<line style="stroke:#fff;stroke-width:1px" x1="150" x2="150" y1="72" y2="0" />
		<line style="stroke:#fff;stroke-width:1px" x1="160" x2="160" y1="72" y2="0" />
		<line style="stroke:#fff;stroke-width:1px" x1="170" x2="170" y1="72" y2="0" />
		<line style="stroke:#fff;stroke-width:1px" x1="180" x2="180" y1="72" y2="0" />
		<line style="stroke:#fff;stroke-width:1px" x1="190" x2="190" y1="72" y2="0" />
		<line style="stroke:#fff;stroke-width:1px" x1="200" x2="200" y1="72" y2="0" />
		<line style="stroke:#fff;stroke-width:1px" x1="210" x2="210" y1="72" y2="0" />
		<line style="stroke:#fff;stroke-width:1px" x1="220" x2="220" y1="72" y2="0" />
		<line style="stroke:#fff;stroke-width:1px" x1="230" x2="230" y1="72" y2="0" />
		<line style="stroke:#fff;stroke-width:1px" x1="240" x2="240" y1="72" y2="0" />
		<line style="stroke:#fff;stroke-width:1px" x1="250" x2="250" y1="72" y2="0" />
		<line style="stroke:#fff;stroke-width:1px" x1="260" x2="260" y1="72" y2="0" />
		<line style="stroke:#fff;stroke-width:1px" x1="270" x2="270" y1="72" y2="0" />
		<line style="stroke:#fff;stroke-width:1px" x1="280" x2="280" y1="72" y2="0" />
		<line style="stroke:#fff;stroke-width:1px" x1="290" x2="290" y1="72" y2="0" />
		<line style="stroke:#fff;stroke-width:1px" x1="300" x2="300" y1="72" y2="0" />
		<line style="stroke:#fff;stroke-width:1px" x1="310" x2="310" y1="72" y2="0" />
		<line style="stroke:#fff;stroke-width:1px" x1="320" x2="320" y1="72" y2="0" />
		<line style="stroke:#fff;stroke-width:1px" x1="330" x2="330" y1="72" y2="0" />
		<line style="stroke:#fff;stroke-width:1px" x1="340" x2="340" y1="72" y2="0" />
		<line style="stroke:#fff;stroke-width:1px" x1="350" x2="350" y1="72" y2="0" />
		<line style="stroke:#fff;stroke-width:1px" x1="360" x2="360" y1="72" y2="0" />
		<line style="stroke:#fff;stroke-width:1px" x1="370" x2="370" y1="72" y2="0" />
		<line style="stroke:#fff;stroke-width:1px" x1="380" x2="380" y1="72" y2="0" />
		<line style="stroke:#fff;stroke-width:1px" x1="390" x2="390" y1="72" y2="0" />
		<line style="stroke:#fff;stroke-width:1px" x1="400" x2="400" y1="72" y2="0" />
		<line style="stroke:#fff;stroke-width:1px" x1="410" x2="410" y1="72" y2="0" />
		<line style="stroke:#fff;stroke-width:1px" x1="420" x2="420" y1="72" y2="0" />
		<line style="stroke:#fff;stroke-width:1px" x1="430" x2="430" y1="72" y2="0" />
		<line style="stroke:#fff;stroke-width:1px" x1="440" x2="440" y1="72" y2="0" />
		<line style="stroke:#fff;stroke-width:1px" x1="450" x2="450" y1="72" y2="0" />
		<line style="stroke:#fff;stroke-width:1px" x1="460" x2="460" y1="72" y2="0" />
		<line style="stroke:#fff;stroke-width:1px" x1="470" x2="470" y1="72" y2="0" />
		<line style="stroke:#fff;stroke-width:1px" x1="480" x2="480" y1="72" y2="0" />
		<line style="stroke:#fff;stroke-width:1px" x1="490" x2="490" y1="72" y2="0" />
		<line style="stroke:#fff;stroke-width:1px" x1="500" x2="500" y1="72" y2="0" />
		<line style="stroke:#fff;stroke-width:1px" x1="510" x2="510" y1="72" y2="0" />
		<line style="stroke:#fff;stroke-width:1px" x1="520" x2="520" y1="72" y2="0" />
		<line style="stroke:#fff;stroke-width:1px" x1="530" x2="530" y1="72" y2="0" />
		<line style="stroke:#fff;stroke-width:1px" x1="540" x2="540" y1="72" y2="0" />
		<line style="stroke:#fff;stroke-width:1px" x1="550" x2="550" y1="72" y2="0" />
		<line style="stroke:#fff;stroke-width:1px" x1="560" x2="560" y1="72" y2="0" />
		<line style="stroke:#fff;stroke-width:1px" x1="570" x2="570" y1="72" y2="0" />
		<line style="stroke:#fff;stroke-width:1px" x1="580" x2="580" y1="72" y2="0" />
		<line style="stroke:#fff;stroke-width:1px" x1="590" x2="590" y1="72" y2="0" />
		<line style="stroke:#fff;stroke-width:1px" x1="600" x2="600" y1="72" y2="0" />
		<line style="stroke:#fff;stroke-width:1px" x1="610" x2="610" y1="72" y2="0" />
		<line style="stroke:#fff;stroke-width:1px" x1="620" x2="620" y1="72" y2="0" />
		<line style="stroke:#fff;stroke-width:1px" x1="630" x2="630" y1="72" y2="0" />
		<line style="stroke:#fff;stroke-width:1px" x1="640" x2="640" y1="72" y2="0" />
		<line style="stroke:#fff;stroke-width:1px" x1="650" x2="650" y1="72" y2="0" />
		<line style="stroke:#fff;stroke-width:1px" x1="660" x2="660" y1="72" y2="0" />
		<line style="stroke:#fff;stroke-width:1px" x1="670" x2="670" y1="72" y2="0" />
		<line style="stroke:#fff;stroke-width:1px" x1="680" x2="680" y1="72" y2="0" />
		<line style="stroke:#fff;stroke-width:1px" x1="690" x2="690" y1="72" y2="0" />
		<line style="stroke:#fff;stroke-width:1px" x1="700" x2="700" y1="72" y2="0" />
		<line style="stroke:#fff;stroke-width:1px" x1="710" x2="710" y1="72" y2="0" />
		<line style="stroke:#fff;stroke-width:1px" x1="720" x2="720" y1="72" y2="0" />
		<line style="stroke:#fff;stroke-width:1px" x1="730" x2="730" y1="72" y2="0" />
		<line style="stroke:#fff;stroke-width:1px" x1="740" x2="740" y1="72" y2="0" />
		<line style="stroke:#fff;stroke-width:1px" x1="750" x2="750" y1="72" y2="0" />
		<line style="stroke:#fff;stroke-width:1px" x1="760" x2="760" y1="72" y2="0" />
		<line style="stroke:#fff;stroke-width:1px" x1="770" x2="770" y1="72" y2="0" />
		<line style="stroke:#fff;stroke-width:1px" x1="780" x2="780" y1="72" y2="0" />
		<line style="stroke:#fff;stroke-width:1px" x1="790" x2="790" y1="72" y2="0" />
		<line style="stroke:#fff;stroke-width:1px" x1="800" x2="800" y1="72" y2="0" />
	</g>
	<g id="bars">
		<rect fill="#f0ad4e" height="12px" width="62px" x="34px" y="0px">
			<title>Event 2</title>
		</rect>
		<rect fill="#f0ad4e" height="12px" width="34px" x="104px" y="0px">
			<title>Event 5</title>
		</rect>
		<rect fill="#5cb85c" height="12px" width="101px" x="148px" y="0px">
			<title>Event 6</title>
		</rect>
		<rect fill="#5cb85c" height="12px" width="11px" x="534px" y="0px">
			<title>Event 9</title>
		</rect>
		<rect fill="#5cb85c" height="12px" width="29px" x="9px" y="18px">
			<title>Event 1</title>
		</rect>
		<rect fill="#f0ad4e" height="12px" width="43px" x="43px" y="18px">
			<title>Event 3</title>
		</rect>
		<rect fill="#f0ad4e" height="12px" width="116px" x="165px" y="18px">
			<title>Event 7</title>
		</rect>
		<rect fill="#d9534f" height="12px" width="46px" x="5px" y="36px">
			<title>Event 0</title>
		</rect>
		<rect fill="#d9534f" height="12px" width="43px" x="70px" y="36px">
			<title>Event 4</title>
		</rect>
		<rect fill="#5cb85c" height="12px" width="101px" x="174px" y="36px">
			<title>Event 8</title>
		</rect>
	</g>
	<!-- 
	Generated using the Perl SVG Module V2.78
	by Ronan Oger
	Info: http://www.roitsystems.com/
 -->
</svg>
